<svg viewBox="0 0 56 56" xmlns="http://www.w3.org/2000/svg" xmlns:xlink="http://www.w3.org/1999/xlink" width="56.000000" height="56.000000" fill="none" clip-path="url(#clipPath_0)" customFrame="url(#clipPath_0)">
	<defs>
		<clipPath id="clipPath_0">
			<rect width="56.000000" height="56.000000" x="0.000000" y="0.000000" rx="28.000000" fill="rgb(255,255,255)" />
		</clipPath>
	</defs>
	<rect id="Frame 12" width="56.000000" height="56.000000" x="0.000000" y="0.000000" rx="28.000000" fill="rgb(164.56,61.2,255)" />
	<path id="B" d="M30.728 27.832C31.624 27.992 32.384 28.464 33.008 29.248C33.632 30.032 33.944 30.92 33.944 31.912C33.944 32.76 33.72 33.528 33.272 34.216C32.84 34.888 32.208 35.424 31.376 35.824C30.544 36.208 29.576 36.4 28.472 36.4L21.8 36.4L21.8 19.72L28.16 19.72C29.296 19.72 30.272 19.912 31.088 20.296C31.904 20.68 32.52 21.2 32.936 21.856C33.352 22.496 33.56 23.216 33.56 24.016C33.56 24.976 33.304 25.776 32.792 26.416C32.28 27.056 31.592 27.528 30.728 27.832ZM24.536 26.728L27.92 26.728C28.816 26.728 29.512 26.528 30.008 26.128C30.52 25.712 30.776 25.12 30.776 24.352C30.776 23.6 30.52 23.016 30.008 22.6C29.512 22.168 28.816 21.952 27.92 21.952L24.536 21.952L24.536 26.728ZM28.232 34.168C29.16 34.168 29.888 33.944 30.416 33.496C30.944 33.048 31.208 32.424 31.208 31.624C31.208 30.808 30.928 30.16 30.368 29.68C29.808 29.2 29.064 28.96 28.136 28.96L24.536 28.96L24.536 34.168L28.232 34.168Z" fill="rgb(255,255,255)" fill-rule="nonzero" />
</svg>
